<svg version="1.1" id="Capa_1" xmlns="http://www.w3.org/2000/svg" xmlns:xlink="http://www.w3.org/1999/xlink" x="0px" y="0px"
             viewBox="0 0 211.1 211.1" style="enable-background:new 0 0 211.1 211.1;" xml:space="preserve">
          <style type="text/css">
            .st0{fill:#FFFFFF;}
            .st5{fill:#FCC015;}
          </style>
          <path class="st0" d="M103.4,208.7c-36.7,0-66.5-29.8-66.5-66.5v-1h-1.5c-11.3,0-20.5-9.2-20.5-20.5v-9.4c0-11.3,9.2-20.5,20.5-20.5
            h1.5V60.6c0-11.6,5.4-22.6,14.4-29.8c-0.3-1.6-0.5-3.2-0.5-4.8c0-4.2,2.2-8.6,6-11.6c0,0,0.1-0.1,0.1-0.1l2.3-1.6
            c0.1-0.1,0.2-0.1,0.3-0.2c0.4-0.2,0.8-0.4,1.2-0.7c2.1-1.3,5.4-3.2,10.8-4.9c7.4-2.4,15.2-3.9,23.9-4.3c33.1-1.9,62.6,7.9,71.7,23.7
            c0,0,0,0,0,0c1.2,1.9,2,3.3,2.7,5c7.4,16,1.4,32.8,0.1,36v23.5h1.6c11.3,0,20.5,9.2,20.5,20.5v9.4c0,11.3-9.2,20.5-20.5,20.5h-1.6v1
            C169.9,178.9,140.1,208.7,103.4,208.7z M41.8,138.8v3.4c0,34,27.6,61.6,61.6,61.6c34,0,61.6-27.6,61.6-61.6v-20.7h-4.3
            c-0.7,0-1.3-0.3-1.7-0.7c-0.5-0.5-0.7-1.1-0.7-1.7c0-0.3,0.3-28.4-1.9-37.1c-2-7.9-7.6-11-7.8-11.1c-0.6-0.3-1-0.9-1.2-1.5
            c-0.2-0.6-0.1-1.3,0.2-1.9c0-0.1,3.4-5.7,3.5-11.2c0-0.9-3.5-2.9-8.1-4.2c-5.3-1.1-9.4-1.1-9.5-1.1c0,0,0,0-0.1,0H82.6
            c-7.3,0-13.7-1.3-18.9-3.8c-0.9-0.4-1.7-0.9-2.5-1.4c-2.3,2.6-5.5,7.1-5.5,10.5c0,5.4,3.4,11,3.5,11.1c0.4,0.6,0.5,1.3,0.3,1.9
            c-0.2,0.7-0.6,1.2-1.2,1.5c-0.2,0.1-5.8,3.3-7.8,11.1c-2.2,8.7-1.9,36.9-1.9,37.1c0,0.7-0.2,1.3-0.7,1.7c-0.5,0.5-1.1,0.7-1.7,0.7
            h-4.3C41.8,121.5,41.8,138.8,41.8,138.8z M170,136.3h1.5c8.6,0,15.6-7,15.6-15.6v-9.4c0-8.6-7-15.6-15.6-15.6H170V136.3z M35.5,95.7
            c-8.6,0-15.6,7-15.6,15.6v9.4c0,8.6,7,15.6,15.6,15.6h1.5V95.7H35.5z M163.2,116.6h1.9V67.5c-2.1-4.6-5.4-8-9.1-10.4
            c-0.3,4.3-1.9,8.4-3.1,10.7c2.5,1.9,6.5,6,8.2,12.9C163.1,88.5,163.2,109.4,163.2,116.6z M41.8,116.6h1.9c0-7.2,0.1-28.1,2-35.9
            c1.7-6.9,5.7-11,8.2-12.9c-1.2-2.5-3.1-7-3.1-11.6c0-5.2,4.1-10.8,6.6-13.6c-1.9-1.9-3.4-4.2-4.5-6.7c-7,6.2-11.1,15.3-11.1,24.7
            L41.8,116.6L41.8,116.6z M133.9,45.9c3.3,0,23,0.6,33,15c0.3-1.3,0.7-2.8,1-4.5c-2.9-2.8-13.2-11.9-28.6-14.9
            c-10.8-2-23.5-1.3-35.8-0.5c-9.1,0.6-18.6,1.2-27,0.5c-8.1-0.6-13.8-2.7-17.6-5.1c1.8,2.7,4.2,4.9,7.2,6.3
            c4.5,2.1,10.1,3.2,16.6,3.2h50.8C133.5,45.9,133.7,45.9,133.9,45.9z M122.9,35.2c6,0,11.8,0.4,17.3,1.4c13.5,2.6,23.3,9.4,28.4,13.6
            c0.1-2.2,0-4.4-0.3-6.8c-6.8-6.8-18.9-11.6-35-13.8c-8.5-1.2-18.3,0.2-28.6,1.6c-10.4,1.4-21.1,2.9-30.8,1.6
            c-10.7-1.4-15.6-5.3-17.9-8.7c-0.2,0.6-0.2,1.2-0.2,1.9c0,0.2,0,0.5,0,0.7c0.8,1.5,5.3,8.7,21,9.9c8,0.6,16.9,0.1,26.3-0.5
            C109.7,35.6,116.4,35.2,122.9,35.2z M126.1,24.4c2.7,0,5.2,0.1,7.7,0.5c13.7,1.9,24.7,5.5,32.5,10.8c-0.3-0.8-0.6-1.5-1-2.3
            c-0.7-1.5-1.4-2.8-2.5-4.5c0,0,0-0.1-0.1-0.1c-8.1-14.1-36.4-23-67.2-21.3C87.4,8,80,9.3,73,11.6c0,0-0.1,0-0.1,0
            c-4.7,1.4-7.7,3.2-9.6,4.4c-0.5,0.3-0.9,0.5-1.3,0.7l-2.1,1.5c-0.3,0.2-0.6,0.5-0.8,0.7c0.3,1.9,2.3,7.3,15.4,9.1
            c9,1.2,19.4-0.2,29.5-1.6C111.4,25.4,119,24.4,126.1,24.4z M138.5,169.2c-0.6,0-1.3-0.2-1.7-0.7l-6.4-6.4c-1.1-1.1-2.5-1.7-4-1.7
            c-1.5,0-2.9,0.6-4,1.7l-0.4,0.4c-2,2-4.6,3.1-7.5,3.1s-5.5-1.1-7.5-3.1l-0.2-0.2c-1.1-1.1-2.5-1.7-4-1.7s-2.9,0.6-4,1.7
            c-2,2-4.6,3.1-7.5,3.1s-5.5-1.1-7.5-3.1c-1.1-1.1-2.5-1.7-4-1.7s-2.9,0.6-4,1.7l-5.7,5.7c-1,1-2.5,1-3.5,0c-1-1-1-2.5,0-3.5l5.7-5.7
            c2-2,4.6-3.1,7.5-3.1c2.8,0,5.5,1.1,7.5,3.1c1.1,1.1,2.5,1.7,4,1.7s2.9-0.6,4-1.7c2-2,4.6-3.1,7.5-3.1c2.8,0,5.5,1.1,7.5,3.1
            l0.2,0.2c1.1,1.1,2.5,1.7,4,1.7s2.9-0.6,4-1.7l0.4-0.4c2-2,4.6-3.1,7.5-3.1c2.8,0,5.5,1.1,7.5,3.1l6.4,6.4c1,1,1,2.5,0,3.5
            C139.8,169,139.1,169.2,138.5,169.2z M127.5,128.2c-9.6,0-17.4-7.8-17.4-17.4s7.8-17.4,17.4-17.4c9.6,0,17.4,7.8,17.4,17.4
            C144.8,120.4,137.1,128.2,127.5,128.2z M127.5,98.4c-6.9,0-12.5,5.6-12.5,12.5c0,6.9,5.6,12.5,12.5,12.5c6.9,0,12.5-5.6,12.5-12.5
            C140,104,134.4,98.4,127.5,98.4z M92.7,120.4H66.5c-0.9,0-1.7-0.5-2.1-1.3c-1.4-2.5-2.1-5.4-2.1-8.3c0-9.6,7.8-17.4,17.4-17.4
            S97,101.3,97,110.8c0,2.9-0.7,5.8-2.1,8.3C94.4,119.9,93.6,120.4,92.7,120.4z M68,115.5h23.1c0.6-1.5,0.9-3.1,0.9-4.7
            c0-6.9-5.6-12.5-12.5-12.5s-12.5,5.6-12.5,12.5C67.1,112.5,67.4,114.1,68,115.5z M127.5,113.5c-1.3,0-2.4-1.1-2.4-2.4v-0.2
            c0-1.3,1.1-2.4,2.4-2.4c1.3,0,2.4,1.1,2.4,2.4v0.2C129.9,112.4,128.8,113.5,127.5,113.5z M79.6,113.5c-1.3,0-2.4-1.1-2.4-2.4v-0.2
            c0-1.3,1.1-2.4,2.4-2.4s2.4,1.1,2.4,2.4v0.2C82.1,112.4,81,113.5,79.6,113.5z M69.7,89.1c-1.1,0-2.1-0.8-2.4-1.9
            c-0.3-1.3,0.5-2.6,1.8-2.9L89,79.6c1.3-0.3,2.6,0.5,2.9,1.8c0.3,1.3-0.5,2.6-1.8,2.9L70.3,89C70.1,89,69.9,89.1,69.7,89.1z
             M136.1,82.3c-0.4,0-0.9-0.1-1.3-0.4l-17.4-10.6c-1.2-0.7-1.5-2.2-0.8-3.4c0.7-1.2,2.2-1.5,3.4-0.8l17.4,10.6
            c1.2,0.7,1.5,2.2,0.8,3.4C137.8,81.9,137,82.3,136.1,82.3z"/>
          <path class="st5" d="M71.1,121.8c-0.1-0.3-0.4-0.5-0.8-0.5c-0.3,0-0.6,0.2-0.8,0.5c-2.2,4.8-6.1,10.9-6.1,14.2
            c0,3.8,3.1,6.9,6.9,6.9s6.9-3.1,6.9-6.9C77.1,132.7,73.3,126.5,71.1,121.8z M70,140.7c-2.5,0-4.6-2.1-4.6-4.6c0-0.5,0.4-0.9,0.9-0.9
            s0.9,0.4,0.9,0.9c0,1.5,1.2,2.8,2.8,2.8c0.5,0,0.9,0.4,0.9,0.9C70.9,140.2,70.5,140.7,70,140.7z"/>
          </svg>