<svg version="1.1" id="Capa_1" xmlns="http://www.w3.org/2000/svg" xmlns:xlink="http://www.w3.org/1999/xlink" x="0px" y="0px"
             viewBox="0 0 387 387" style="enable-background:new 0 0 387 387;" xml:space="preserve">
          <style type="text/css">
            .st0{fill:#FFFFFF;}
            .st1{fill:#3DC172;}
          </style>
          <g>
            <circle class="st0" cx="112.8" cy="233.2" r="15.4"/>
            <circle class="st0" cx="274.2" cy="233.2" r="15.4"/>
            <path class="st0" d="M387,226.6c0-22.3-16.1-40.8-37.3-44.6v-6.7c0-86.1-70.1-156.2-156.2-156.2c-86.1,0-156.2,70.1-156.2,156.2
              v6.7C16.1,185.8,0,204.4,0,226.6c0,22.5,16.4,41.1,37.9,44.7c3,34.4,18.8,59.8,46.9,75.7c25.1,14.1,60.6,20.9,108.7,20.9
              c48.1,0,83.6-6.8,108.7-20.9c28.2-15.8,43.9-41.2,46.9-75.7C370.6,267.8,387,249.1,387,226.6z M16,226.6c0-13.4,9-24.7,21.3-28.2
              v56.4C25,251.4,16,240,16,226.6z M333.7,258.8c0,35.1-12.9,59.4-39.3,74.3c-22.6,12.7-55.6,18.9-100.9,18.9s-78.3-6.2-100.9-18.9
              c-26.5-14.9-39.3-39.2-39.3-74.3v-83.4C53.3,112,95.5,58.4,153.2,41c44,0.6,67.4,32.3,67.4,55.3c0,17.6-14.3,31.9-31.9,31.9
              c-13.2,0-23.9-10.7-23.9-23.9c0-9.7,7.9-17.6,17.6-17.6c4.4,0,8-3.6,8-8s-3.6-8-8-8c-18.5,0-33.6,15.1-33.6,33.6
              c0,22,17.9,39.9,39.9,39.9c26.4,0,47.9-21.5,47.9-47.9c0-16.6-8.3-34.5-22.3-47.8c-5.6-5.3-11.9-9.8-18.9-13.4
              c76.4,1,138.3,63.5,138.3,140.2L333.7,258.8L333.7,258.8z M349.7,254.9v-56.4c12.3,3.5,21.3,14.8,21.3,28.2S362,251.4,349.7,254.9z
              "/>
            <path class="st0" d="M224.5,255.2c-17.1,17.1-44.8,17.1-61.9,0c-3.1-3.1-8.2-3.1-11.3,0c-3.1,3.1-3.1,8.2,0,11.3
              c11.6,11.6,27,17.5,42.3,17.5s30.6-5.8,42.3-17.5c3.1-3.1,3.1-8.2,0-11.3C232.6,252.1,227.6,252.1,224.5,255.2z"/>
          </g>
          <g>
            <path class="st1" d="M118.4,188.8c-5.4,0-7.7-5-8.5-6.7c-0.6-1.4-1.4-2.2-2.1-2.2c-0.4,0-0.9,0.3-1.2,0.7
              c-3.4,5.1-9.4,8.2-16.1,8.2c-11,0-20-9-20-20c0-6.8,2.7-12.5,7.1-15.3c1.2-0.8,1.9-1.5,1.9-2.2c0-0.9-1-1.6-1.9-1.8
              c-7.7-1.5-12.7-7.1-12.7-14.3c0-8,6.5-14.4,14.4-14.4c3.6,0,7.3,1.5,9.8,4.1c1.2,1.2,2.5,1.7,4.1,1.7c2.8,0,5.3-2.1,5.3-4.6
              c0-0.7,0-3.2,0-4.1c0,0,0,0,0-0.1c0-10.9,8.7-19.5,19.8-19.5c11,0,20,9,20,20c0,4.8-2.3,10.1-4,13.9l-0.1,0.2
              c-1.2,2.8-1.2,5.2,0.1,7.2c1.4,2.2,4.4,3.6,7.8,3.6c0.4,0,0.7,0,1.1,0c0.8-0.1,2.3-0.1,3.1-0.1c0.1,0,0.2,0,0.2,0
              c7.8,0,14.1,6.5,14.1,14.4c0,8-6.5,14.4-14.4,14.4c-4.1,0-7.3-2.2-9.8-4c-0.3-0.2-0.6-0.4-0.9-0.7c-1.3-0.9-2.6-1.3-4-1.3
              c-1.6,0-3.1,0.7-4.2,1.8c-1.2,1.3-1.8,2.9-1.8,4.7c0,1,0.3,1.7,0.6,2.7c0.3,1,0.8,2.2,1.1,4c0.4,2.2-0.3,4.5-1.9,6.3
              C123.6,187.5,121,188.8,118.4,188.8z M107.8,173.4c3.4,0,6.4,2.2,8.1,6c1.3,2.8,2.2,2.8,2.5,2.8c0.7,0,1.5-0.4,2-1
              c0.2-0.2,0.5-0.6,0.4-1.1c-0.2-1.2-0.5-2-0.8-2.9c-0.4-1.2-0.9-2.6-1-4.6c-0.1-3.5,1.2-6.9,3.6-9.4c2.4-2.4,5.6-3.8,8.9-3.8
              c2.7,0,5.2,0.8,7.7,2.5c0.3,0.2,0.7,0.5,1,0.7c2.1,1.5,4,2.8,6,2.8c4.3,0,7.9-3.5,7.9-7.9c0-4.4-3.4-7.9-7.6-7.9l-0.1,0
              c-0.7,0-2.1,0.1-2.7,0.1c-0.5,0-1.1,0.1-1.6,0.1c-5.6,0-10.6-2.4-13.3-6.6c-2.5-3.8-2.7-8.6-0.6-13.4l0.1-0.2
              c1.5-3.3,3.5-7.8,3.5-11.3c0-7.4-6-13.5-13.5-13.5c-7.6,0-13.3,5.5-13.3,12.9c0,0.5,0.1,3.4,0,4.3c-0.1,6-5.4,11-11.8,11
              c-3.4,0-6.4-1.2-8.8-3.7c-1.3-1.3-3.3-2.2-5.2-2.2c-4.3,0-7.9,3.5-7.9,7.9c0,4,2.8,6.9,7.4,7.9c4.2,0.8,7.2,4.2,7.2,8.2
              c0,2.2-0.9,5.3-5,7.8c-3,1.8-4,6.2-4,9.7c0,7.4,6,13.5,13.5,13.5c4.5,0,8.5-2,10.7-5.3C102.6,174.8,105.2,173.4,107.8,173.4z"/>
          </g>
          <path class="st1" d="M228.1,285.3c-0.8-0.2-1.4-0.2-1.8-0.2c-0.5,0-0.8-0.1-1.2-0.2c-0.7-0.3-1.3-0.8-1.7-1.4
            c-0.3-0.6-0.4-1.3-0.2-1.9c0.2-0.5,0.6-0.9,1.2-1.3c0.1-0.1,0.3-0.2,0.4-0.3c1.1-0.7,2.5-1.5,3.1-3.1c0.5-1.2,0.5-2.6,0.1-3.8
            l-2.6,1.6c0,0.4,0,0.8-0.2,1.1c-0.3,0.8-1.1,1.3-2.1,1.9c-0.1,0.1-0.3,0.2-0.4,0.3c-1.1,0.7-1.8,1.5-2.2,2.5
            c-0.5,1.3-0.4,2.7,0.3,4.1c0.7,1.4,1.9,2.4,3.4,2.9c0.8,0.3,1.5,0.3,2.1,0.4c0.4,0,0.8,0.1,1.3,0.2c0.2,0,0.3,0.2,0.4,0.3
            c0.2,0.3,0.2,0.6,0.1,0.9c-0.1,0.1-0.2,0.5-1.6,0.5c-1.9,0-3.2,0.8-3.7,2.1c-0.4,1-0.2,2.2,0.5,3.1c1.1,1.4,1.3,3.2,0.6,4.9
            c-1.1,2.8-4.5,4.2-7.7,3c-1.5-0.6-3.2-1.7-3.5-3.1c-0.5-2-1.6-2.8-2.5-3.2c-1.7-0.6-3.5-0.1-4.5,1.4c-1.1,1.6-2.7,2.2-4.4,1.6
            c-1.8-0.7-2.8-2.6-2.2-4.3c0.3-0.7,0.9-1.4,1.7-1.6c1.4-0.5,2.3-1.5,2.9-2.8c0.9-2.5-0.3-5.3-2.9-6.3c-0.4-0.2-1.6-0.6-1.8-0.7
            l-4.5,0.2c0.9,1,2.1,1.8,3.5,2.3c0,0,0,0,0,0c0.4,0.1,1.4,0.5,1.7,0.6c1,0.4,1.6,1.7,1.1,2.8c-0.2,0.6-0.7,1-1.3,1.3
            c-1.5,0.6-2.6,1.7-3.2,3.1c-1.2,3.1,0.6,6.6,4,7.9c3,1.2,6.1,0.2,7.9-2.5c0.2-0.3,0.6-0.6,1-0.5c0.3,0.1,0.5,0.5,0.7,1.1
            c0.5,2.2,2.5,4.1,5.4,5.2c4.7,1.8,9.8-0.2,11.4-4.4c1-2.6,0.6-5.4-1.1-7.5c-0.1-0.2-0.2-0.4-0.1-0.6c0.1-0.3,0.6-0.5,1.2-0.5
            c0.8,0,3.3-0.1,4.1-2.2c0.4-1,0.3-2.2-0.3-3.2C229.9,286.1,229.1,285.5,228.1,285.3z"/>
          </svg>