<svg version="1.1" id="Capa_1" xmlns="http://www.w3.org/2000/svg" xmlns:xlink="http://www.w3.org/1999/xlink" x="0px" y="0px"
             viewBox="0 0 211.1 211.1" style="enable-background:new 0 0 211.1 211.1;" xml:space="preserve">
          <style type="text/css">
            .st4{fill:#D61834;}
            .st0{fill:#FFFFFF;}
          </style>
          <g>
            <g>
              <path d="M381.3,178.1c0-0.1-0.1-0.4-0.1-0.4l-0.6-1l8-4.8c2.3-1.4,3-4.7,1.6-6.9l-39.5-65.1c-1.4-2.3-4.3-2.7-6.7-1.3l-16.8,10.2
                c-2.3,1.4-3,4-1.6,6.3l39.5,65.1c1.4,2.3,4.3,3.3,6.6,1.9l6.4-3.9l0.5,0.9c-0.1,1.2-0.2,2.3-1,2.8l-9.8,5.9c-1,0.6-2.3,0-2.9-1.1
                l-20.7-34.1c-1.4-2.4-4.6-2.8-6.9-1.4l-1.7,1l-4.8-7.9c-0.2-0.3-0.6-0.4-0.9-0.3c-0.3,0.1-0.5,0.5-0.5,0.9c0,0.9-0.1,3.6-1.2,4.3
                l-36.5,22.2c-2,1.2-2.7,3.6-1.4,5.6l3.7,6.1c1.2,2,3.9,2.9,5.9,1.7l36.6-22.2c1.1-0.7,3.5,0.3,4.2,0.8c0.3,0.2,0.7,0,0.9-0.2
                c0.2-0.2,0.3-0.7,0.2-0.9l-4.6-7.6l1.7-1c1-0.6,2.4-0.6,3,0.4l20.7,34.1c1.4,2.4,4.5,3.4,6.8,2l9.8-5.9
                C381.2,183,382.1,180.3,381.3,178.1z M348.3,101.4l39.5,65.1c0.6,0.9,0.3,2.4-0.7,3l-3.4,2.1c0.2-2.6,0-4.5-1.3-6.5
                c-2.6-4.2-8.1-5.6-12.4-3l0,0c-3.1,1.9-7.3,1-9.2-2.3c-2-3.2-0.8-7.3,2.5-9.3l0.6-0.4c3.5-2.2,4.7-6.8,2.5-10.3
                c-2.1-3.5-6.8-4.7-10.3-2.5l-0.6,0.4c-1.5,0.9-3.5,0.4-4.4-1.1c-0.9-1.5-0.4-3.5,1.1-4.4l1-0.6c2.4-1.4,3.1-4.5,1.7-6.9
                c-1.4-2.4-4.5-3.1-6.9-1.7l-0.7,0.4c-3.1,1.9-7,0.9-8.8-2.2s-0.9-7,2.2-8.8l0.6-0.4c2.4-1.4,3.1-4.5,1.7-6.9
                c-0.4-0.7-0.9-1.1-1.5-1.6l4.2-2.6C346.5,100.4,347.7,100.4,348.3,101.4z"/>
            </g>
          </g>
          <polygon class="st4" points="209.2,191.2 196.3,199.1 168.7,162.7 170.6,143.2 177.9,138.7 "/>
          <path class="st0" d="M209.9,188.3l-30.6-50.4l-2.6,0.2l31.2,51.4c0.5,0.7,0.2,2-0.6,2.4l-2.8,1.7c0.1-2.1,0-3.6-1-5.3
            c-2.1-3.4-6.6-4.6-10.1-2.5c-2.5,1.5-5.9,0.8-7.5-1.8c-1.6-2.6-0.6-5.9,2-7.5l0.5-0.3c2.9-1.7,3.8-5.5,2.1-8.4
            c-1.7-2.9-5.5-3.8-8.4-2l-0.5,0.3c-1.2,0.8-2.8,0.4-3.6-0.9c-0.8-1.2-0.4-2.8,0.9-3.6l0.8-0.5c1.9-1.2,2.5-3.7,1.4-5.6
            c-1.2-1.9-3.7-2.5-5.6-1.4l-0.5,0.3c-1.4,0.9-3.1,1-4.5,0.4l-3.5,8.5l22.6,37.2c1.1,1.8,3.5,2.7,5.4,1.6l5.2-3.2l0.4,0.7
            c-0.1,0.9-0.2,1.9-0.8,2.3l-8,4.8c-0.8,0.5-1.9,0-2.4-0.9l-16.8-27.8c-1.2-1.9-3.7-2.3-5.6-1.1l-1.4,0.8l-2.7-4.4l-4.1,10.1
            l-27.8,18.1l0.8,1.3c1,1.6,3.1,2.4,4.8,1.4l29.7-18c0.9-0.5,2.8,0.3,3.4,0.7c0.2,0.1,0.5,0,0.7-0.2c0.2-0.2,0.3-0.6,0.1-0.8
            l-3.7-6.2l1.3-0.8c0.8-0.5,2-0.4,2.5,0.3l16.8,27.8c1.2,1.9,3.7,2.8,5.6,1.7l8-4.8c1.7-1,2.4-3.2,1.8-5c0,0-0.1-0.3-0.1-0.4
            l-0.5-0.8l6.5-3.9C210.4,192.8,211,190.1,209.9,188.3z"/>
          <path class="st0" d="M105.5,211.1c-37.5,0-68-30.5-68-68v-1H36c-11.6,0-21-9.4-21-21v-9.6c0-11.6,9.4-21,21-21h1.5V59.6
            c0-11.9,5.5-23.1,14.8-30.5c-0.3-1.6-0.5-3.3-0.5-4.9c0-4.3,2.3-8.8,6.2-11.9c0,0,0.1-0.1,0.1-0.1l2.3-1.7c0.1-0.1,0.2-0.1,0.3-0.2
            c0.4-0.2,0.8-0.4,1.2-0.7c2.2-1.3,5.5-3.3,11-5c7.6-2.5,15.6-3.9,24.4-4.4c33.9-1.9,64,8.1,73.4,24.3c1.2,1.9,2,3.4,2.8,5.1
            c7.6,16.4,1.4,33.6,0.1,36.9v24h1.6c11.6,0,21,9.4,21,21v9.6c0,11.6-9.4,21-21,21h-1.6v1C173.5,180.6,143,211.1,105.5,211.1z
             M42.4,139.6v3.5c0,34.8,28.3,63,63,63s63-28.3,63-63v-21.2h-4.4c-0.7,0-1.3-0.3-1.8-0.7c-0.5-0.5-0.7-1.1-0.7-1.8
            c0-0.3,0.3-29.1-1.9-38c-2-8.1-7.8-11.3-8-11.4c-0.6-0.3-1-0.9-1.2-1.5s-0.1-1.4,0.3-1.9c0-0.1,3.4-5.9,3.6-11.5
            c0-0.9-3.7-3.1-8.6-4.4c-5.3-1.1-9.3-1-9.4-1c0,0,0,0-0.1,0h-52c-7.5,0-14-1.3-19.3-3.8c-0.9-0.4-1.7-0.9-2.6-1.4
            c-2.3,2.7-5.7,7.3-5.6,10.8c0,5.5,3.5,11.3,3.6,11.4c0.4,0.6,0.5,1.3,0.3,2s-0.6,1.2-1.2,1.6c-0.2,0.1-6,3.3-8,11.4
            c-2.2,8.9-1.9,37.7-1.9,38c0,0.7-0.3,1.3-0.7,1.8c-0.5,0.5-1.1,0.7-1.8,0.7h-4.4L42.4,139.6L42.4,139.6z M173.6,137.1h1.5
            c8.8,0,16-7.2,16-16v-9.6c0-8.8-7.2-16-16-16h-1.5V137.1z M36,95.5c-8.8,0-16,7.2-16,16v9.6c0,8.8,7.2,16,16,16h1.5V95.5H36z
             M166.6,116.9h1.9V66.6c-2.2-4.7-5.5-8.2-9.3-10.6c-0.3,4.4-2,8.6-3.1,11c2.5,2,6.7,6.1,8.4,13.2
            C166.5,88.1,166.6,109.5,166.6,116.9z M42.4,116.9h1.9c0-7.4,0.1-28.7,2.1-36.7c1.8-7,5.9-11.2,8.4-13.2c-1.3-2.6-3.1-7.2-3.2-11.9
            c0-5.3,4.2-11,6.8-14c-1.9-2-3.5-4.3-4.6-6.8c-7.2,6.4-11.4,15.6-11.4,25.3V116.9z M136.7,44.5c3.4,0,23.6,0.6,33.7,15.3
            c0.4-1.3,0.7-2.9,1-4.6c-2.9-2.9-13.5-12.2-29.3-15.2c-11-2.1-24-1.3-36.6-0.5c-9.4,0.6-19,1.2-27.6,0.5c-8.3-0.6-14.1-2.8-18-5.2
            c1.8,2.8,4.3,5,7.3,6.5c4.6,2.2,10.3,3.3,17,3.3h52C136.3,44.5,136.4,44.5,136.7,44.5z M125.4,33.6c6.1,0,12.1,0.4,17.7,1.4
            c13.9,2.6,23.9,9.6,29,13.9c0.1-2.2,0-4.5-0.3-6.9c-7-7-19.3-11.8-35.8-14.1c-8.7-1.2-18.7,0.2-29.2,1.6
            c-10.6,1.4-21.6,2.9-31.5,1.6c-11-1.4-16-5.4-18.3-8.9c-0.2,0.6-0.2,1.3-0.2,1.9c0,0.2,0,0.5,0,0.7c0.8,1.6,5.4,8.9,21.5,10.1
            c8.2,0.6,17.3,0.1,26.9-0.5C111.9,34,118.7,33.6,125.4,33.6z M128.7,22.5c2.7,0,5.4,0.1,7.9,0.5c14,1.9,25.3,5.7,33.2,11
            c-0.3-0.8-0.6-1.6-1-2.4c-0.7-1.5-1.4-2.9-2.5-4.6c0,0,0-0.1-0.1-0.1C158,12.6,129.1,3.5,97.5,5.2c-8.4,0.5-16,1.8-23.2,4.2
            c0,0-0.1,0-0.1,0l0,0c-4.9,1.5-7.9,3.3-9.9,4.5c-0.5,0.3-0.9,0.5-1.3,0.8l-2.2,1.5c-0.3,0.2-0.6,0.5-0.8,0.7c0.3,2,2.4,7.5,15.8,9.3
            c9.2,1.2,19.9-0.2,30.2-1.6C113.6,23.6,121.4,22.5,128.7,22.5z M74.8,162.9c-0.5,0-1-0.2-1.5-0.5c-4.2-3.1-6.2-8.1-5.4-13.2l0.1-0.6
            c0.2-1.4,1.5-2.3,2.9-2.1c1.4,0.2,2.3,1.5,2.1,2.9l-0.1,0.6c-0.1,0.6-0.1,1.1-0.1,1.6c21.2-10.4,51.9,1,53.2,1.5
            c1.3,0.5,1.9,1.9,1.4,3.2s-1.9,1.9-3.2,1.4c-0.3-0.1-30.6-11.4-49.9-1.4c0.5,0.7,1.2,1.4,1.9,2c1.1,0.8,1.3,2.4,0.5,3.5
            C76.3,162.6,75.6,162.9,74.8,162.9z M131.5,124.2c-8.4,0-15.2-6.8-15.2-15.2c0-8.4,6.8-15.2,15.2-15.2c8.4,0,15.2,6.8,15.2,15.2
            C146.8,117.4,139.9,124.2,131.5,124.2z M131.5,98.7c-5.6,0-10.2,4.6-10.2,10.2s4.6,10.2,10.2,10.2s10.2-4.6,10.2-10.2
            C141.8,103.3,137.2,98.7,131.5,98.7z M83.1,124.2c-8.4,0-15.2-6.8-15.2-15.2c0-8.4,6.8-15.2,15.2-15.2c8.4,0,15.2,6.8,15.2,15.2
            C98.3,117.4,91.5,124.2,83.1,124.2z M83.1,98.7c-5.6,0-10.2,4.6-10.2,10.2s4.6,10.2,10.2,10.2c5.6,0,10.2-4.6,10.2-10.2
            C93.3,103.3,88.7,98.7,83.1,98.7z M131.5,111.7c-1.4,0-2.5-1.1-2.5-2.5V109c0-1.4,1.1-2.5,2.5-2.5s2.5,1.1,2.5,2.5v0.2
            C134,110.6,132.9,111.7,131.5,111.7z M83.1,111.7c-1.4,0-2.5-1.1-2.5-2.5V109c0-1.4,1.1-2.5,2.5-2.5s2.5,1.1,2.5,2.5v0.2
            C85.6,110.6,84.4,111.7,83.1,111.7z M119.8,93.8c-0.9,0-1.8-0.5-2.2-1.3c-0.6-1.2-0.2-2.7,1-3.4l17.8-9.5c1.2-0.6,2.7-0.2,3.4,1
            s0.2,2.7-1,3.4L121,93.5C120.6,93.7,120.2,93.8,119.8,93.8z M93.1,80.6c-0.3,0-0.7-0.1-1-0.2l-20-8.7c-1.3-0.6-1.8-2-1.3-3.3
            c0.6-1.3,2-1.8,3.3-1.3l20,8.7c1.3,0.6,1.8,2,1.3,3.3C94.9,80,94,80.6,93.1,80.6z"/>
          </svg>