<svg id="girl_ico" data-name="Capa 1" xmlns="http://www.w3.org/2000/svg" viewBox="0 0 345.4 397.61"><title>girl</title><path d="M238.23,313.7a37,37,0,0,1-52.22,0,7.54,7.54,0,1,0-10.67,10.67,52.07,52.07,0,0,0,73.56,0,7.54,7.54,0,1,0-10.67-10.67Z" transform="translate(-39.42 -13.28)" fill="#9b59b6"/><path d="M382.88,388.55c-17.68-19.57-18.43-69.44-16.33-121a39.52,39.52,0,0,0,2.68-54.95c2.57-52.63,3.93-87.83-12.76-120.33-11.39-22.17-29.82-40.7-54.78-55.07a179.36,179.36,0,0,0-95.95-23.76,103.12,103.12,0,0,0-76.14,38c-24.53,1.46-46.85,14.81-58.85,35.44-1,1.77-2,3.59-3,5.41C51.08,124.74,52.44,159.94,55,212.56a39.53,39.53,0,0,0,2.68,54.94C59.79,319.11,59,369,41.36,388.56a7.54,7.54,0,0,0,2.94,12.11,159.16,159.16,0,0,0,56.55,10.21,180,180,0,0,0,46.69-6.31,182,182,0,0,0,42.57-17.28,135.47,135.47,0,0,0,44,0,182,182,0,0,0,42.57,17.28,177.46,177.46,0,0,0,46.45,6.32,160.64,160.64,0,0,0,56.79-10.22,7.55,7.55,0,0,0,2.94-12.12ZM347,254.22V215.31a24.52,24.52,0,0,1-.23,46.74C346.91,259.46,347,256.85,347,254.22ZM81.21,99.12c.81-1.59,1.68-3.18,2.58-4.72,9.94-17.08,28.95-27.84,49.61-28.07h.1a7.55,7.55,0,0,0,5.83-3,88.27,88.27,0,0,1,66.94-34.9,164.26,164.26,0,0,1,87.89,21.76C316.56,63.12,333,79.57,343,99.12c13.36,26,13.76,54.31,11.57,102.93a39.14,39.14,0,0,0-7.61-2.29v-7.68a7.55,7.55,0,0,0-15.09,0v17.14C228,210.33,171.7,160.27,156.69,144.6A7.55,7.55,0,0,0,144.26,147c-11,26.67-30.12,40.62-60.28,43.91a7.55,7.55,0,0,0-6.73,7.5v1.39a39.23,39.23,0,0,0-7.62,2.29C67.44,153.44,67.84,125.15,81.21,99.12ZM77.48,262.05a24.52,24.52,0,0,1-.23-46.74v38.91Q77.25,258.17,77.48,262.05ZM59.05,389.74c13.45-23,15.79-61.14,14.08-113.24a38.43,38.43,0,0,0,6.2,1.37,135.34,135.34,0,0,0,88.37,103.7C145.87,391,104.55,403.41,59.05,389.74ZM212.12,374A119.91,119.91,0,0,1,92.34,254.22V205c28.3-4.66,48.45-18.59,61.22-42.36A221.83,221.83,0,0,0,206.78,198C244,216,286.09,224.8,331.91,224.31v29.91A119.92,119.92,0,0,1,212.12,374Zm69,16.13a179.13,179.13,0,0,1-24.61-8.55,135.32,135.32,0,0,0,88.4-103.71,38.55,38.55,0,0,0,6.19-1.37c-1.71,52.11.63,90.29,14.09,113.25C338.55,397.8,310.32,397.94,281.13,390.13Z" transform="translate(-39.42 -13.28)" fill="#fff"/><path d="M121.94,231.86a7.54,7.54,0,0,0,10.67,10.67,12.41,12.41,0,0,1,17.54,0,7.54,7.54,0,0,0,10.67-10.67A27.5,27.5,0,0,0,121.94,231.86Z" transform="translate(-39.42 -13.28)" fill="#fff"/><path d="M302.31,242.53a7.54,7.54,0,0,0,0-10.67,27.5,27.5,0,0,0-38.88,0,7.54,7.54,0,1,0,10.67,10.67,12.41,12.41,0,0,1,17.54,0,7.54,7.54,0,0,0,10.67,0Z" transform="translate(-39.42 -13.28)" fill="#fff"/></svg>