<svg id="lock" data-name="lock" xmlns="http://www.w3.org/2000/svg" viewBox="0 0 393.15 512"><title>padlock</title><path d="M103.57,153.79v53.46H100a40.63,40.63,0,0,0-40.59,40.59V471.41A40.63,40.63,0,0,0,100,512H412a40.63,40.63,0,0,0,40.59-40.59V247.74A40.64,40.64,0,0,0,412,207.14h-1.05V153.68C410.94,68.94,342,0,257.26,0S103.57,69.05,103.57,153.79ZM280.06,369.51c-3.14,2.3-4,4.5-4,8.16.1,16.43.1,32.75.1,49.17h0c.32,6.8-3.14,13.5-9.21,16.53-14.33,7.32-28.66-2.93-28.66-16.53v-.1c0-16.43,0-32.85.1-49.28,0-3.35-.73-5.54-3.66-7.74-14.85-11-19.77-29.71-12.34-46.14,7.22-16,24.9-25.42,41.53-22.07,18.52,3.77,31.39,18.62,31.6,37.14C295.55,351.52,290.42,362,280.06,369.51ZM170.84,153.79a86.42,86.42,0,1,1,172.83,0v53.46H170.84Z" transform="translate(-59.42)" fill="#fff"/></svg>