<svg id="Calque_1" data-name="Calque 1" xmlns="http://www.w3.org/2000/svg" viewBox="0 0 386.83 418.23"><defs><style>.cls-1{fill:#fff;}.cls-2{fill:#2e77bf;}</style></defs><title>boy-broad-smile</title><path class="cls-1" d="M119.13,242.24a14.46,14.46,0,0,1,10.2,4.2,7.63,7.63,0,0,0,5.6,2.3,8.22,8.22,0,0,0,5.6-2.3,7.79,7.79,0,0,0,.08-11l-.08-.08a30.18,30.18,0,0,0-42.68-.12l-.12.12a7.85,7.85,0,0,0,11.1,11.1A14.44,14.44,0,0,1,119.13,242.24Z" transform="translate(0 -0.01)"/><path class="cls-1" d="M261,235.24a7.79,7.79,0,0,0-.08,11l.08.08a7.88,7.88,0,0,0,11.1,0,14.49,14.49,0,0,1,20.4,0,7.63,7.63,0,0,0,5.6,2.3,8,8,0,0,0,5.6-2.3,7.79,7.79,0,0,0,.08-11l-.08-.08a30.18,30.18,0,0,0-42.68,0Z" transform="translate(0 -0.01)"/><path class="cls-1" d="M282.33,312.94c-44.9,44.9-118.2,44.9-163.2,0A7.85,7.85,0,0,0,108,324a131.33,131.33,0,0,0,185.4,0,7.79,7.79,0,0,0,.08-11l-.08-.08A8,8,0,0,0,282.33,312.94Z" transform="translate(0 -0.01)"/><path class="cls-1" d="M386.83,250.64a43.8,43.8,0,0,0-35.9-43v-132a50.93,50.93,0,0,0-67.8-48.1l-49.5-16.8a196.59,196.59,0,0,0-115.8-3.8c-49.3,13.7-77.6,42.5-82,83.5a63.65,63.65,0,0,0-9.1,17.1l-3.8,11.3A13.66,13.66,0,0,0,45.43,133a25.64,25.64,0,0,1,5.1-3.9v78.6a43.72,43.72,0,0,0,2.4,86.4,150.6,150.6,0,0,0,41.4,79.5,148.16,148.16,0,0,0,106.3,44.6h0a150.39,150.39,0,0,0,148-124.2A43.82,43.82,0,0,0,386.83,250.64Zm-67.3-204.2a34.63,34.63,0,0,1,15.8,29.3v103.2a51.33,51.33,0,0,1-43.3-50.6l-.7-86.7A34.6,34.6,0,0,1,319.53,46.44ZM40.23,117l1.6-4.5a44.06,44.06,0,0,1,60.5-25.9A60.38,60.38,0,0,0,172.53,72l2-2.2a7.86,7.86,0,1,0-11.8-10.4l-2,2.2A44.25,44.25,0,0,1,109,72.34a60,60,0,0,0-48.9-.8c-1.4.6-2.8,1.3-4.1,2,9.2-24.4,31.3-41.6,66.2-51.3a180.23,180.23,0,0,1,106.5,3.5l46.9,15.9.6,40.7a139.13,139.13,0,0,1-86.1,54.3,138.46,138.46,0,0,1-102.2-20.2A43.09,43.09,0,0,0,40.23,117Zm-9.7,133.6a28,28,0,0,1,20.1-26.8v42.8c0,3.6.1,7.4.4,11A28,28,0,0,1,30.53,250.64Zm265.3,112.5a133.34,133.34,0,0,1-95,39.3h0a132.61,132.61,0,0,1-95.1-40,136,136,0,0,1-39.3-95.9V125.44a28.25,28.25,0,0,1,12.9,4.3,153.73,153.73,0,0,0,113.6,22.6,155,155,0,0,0,83.2-45.2v21.4a66.94,66.94,0,0,0,59,66.4v73.2A132.93,132.93,0,0,1,295.83,363.14Zm54.8-85.5c.2-3.2.3-6.3.3-9.5v-44.3a28,28,0,0,1-.3,53.8Z" transform="translate(0 -0.01)"/><path class="cls-1" d="M51.83,200.94l-3.4,3.3c-5.6-8.6-9.3-15.6-10.7-20.3a13.13,13.13,0,0,0,4.3-3.2,77.48,77.48,0,0,1,9.9,5.6v-9c-2-1.2-3.8-2.2-5.6-3.1a26.37,26.37,0,0,0,1-3,22.94,22.94,0,0,0-3.4-18,25.46,25.46,0,0,0-14.2-10.6,41.67,41.67,0,0,1-16.3-9.6,3.77,3.77,0,0,0-5.3.1,28.69,28.69,0,0,0-8,19A35.3,35.3,0,0,0,6,172.74a45.78,45.78,0,0,0,4.6,5.8,24,24,0,0,0,19.9,7.3c2.7,8.7,10.4,21.5,21.5,36.1l-.2-21ZM34.23,177c-5.5,3.2-13.2,1.7-18.3-3.5a36,36,0,0,1-3.7-4.6c-5.9-9.1-6.2-19.8-1-27.5a52.27,52.27,0,0,0,16.3,8.7h0c.1,0,.1,0,.2.1a18.73,18.73,0,0,1,9.9,7.4,15.09,15.09,0,0,1,2.4,12A13.35,13.35,0,0,1,34.23,177Z" transform="translate(0 -0.01)"/><path class="cls-2" d="M46.33,174.32a25.6,25.6,0,0,0,1.08-2.95A23.37,23.37,0,0,0,44,153.18a26,26,0,0,0-14.32-10.7A41,41,0,0,1,13.52,133a4,4,0,0,0-5.5.21,28.76,28.76,0,0,0-8,19,35.3,35.3,0,0,0,5.9,20.6,45.78,45.78,0,0,0,4.6,5.8c5.4,5.4,12.59,8.15,19.39,7.45,0,0,7.81-2,7.81-2.05a13.13,13.13,0,0,0,4.3-3.2C42.93,180.12,45.63,175.42,46.33,174.32Zm-6.5-4.7a11.55,11.55,0,0,1-5.65,7.25c-5.5,3.2-13,2-18.15-3.25a36,36,0,0,1-3.7-4.6c-5.9-9.1-6.2-19.8-1-27.5a52.27,52.27,0,0,0,16.3,8.7h0c.1,0,.1,0,.2.1a18.73,18.73,0,0,1,9.9,7.4A16.75,16.75,0,0,1,39.83,169.62Z" transform="translate(0 -0.01)"/><path class="cls-2" d="M10.43,148c-1.8,4.2,3.1,12.2,5,12.8,4.7,1.3,5.2-2.2,5.2-2.2s-5.7-3.5-7.6-12.4C13,146.34,12.23,143.84,10.43,148Z" transform="translate(0 -0.01)"/></svg>