<svg id="check-esponse" data-name="Capa 1" xmlns="http://www.w3.org/2000/svg" viewBox="0 0 422.8 327.31"><title>response</title><path d="M408.41,50.25,372.54,14.39a25.47,25.47,0,0,0-35.87,0l-173,173.28L86.13,109.85a24.41,24.41,0,0,0-17.93-7.38,24.42,24.42,0,0,0-17.94,7.38L14.38,145.72a25.47,25.47,0,0,0,0,35.87l95.47,95.47,35.87,35.87a25.47,25.47,0,0,0,35.87,0l35.87-35.87,191-190.94A25.47,25.47,0,0,0,408.41,50.25Z" transform="translate(0.01 0)" fill="rgba(255,255,255,0.1)" stroke="rgba(0,0,0,0.1)" stroke-miterlimit="10" stroke-width="14"/></svg>