<svg id="reward" xmlns="http://www.w3.org/2000/svg" viewBox="0 0 503.72 503.72"><title>reward-circle</title><path d="M371.25,132.57h-39.8V119.3H172.36v13.27H132.59c-8,0-13.27,5.3-13.27,13.25v31.83c0,30.48,22.51,55.68,53,59.65v1.33a79.71,79.71,0,0,0,62.31,78.2l-9.31,27.86H194.9A12.7,12.7,0,0,0,183,354l-10.62,30.49H331.45L320.84,354a12.72,12.72,0,0,0-11.9-9.28H278.42l-9.28-27.85a79.72,79.72,0,0,0,62.31-78.16v-1.33c30.49-4,53-29.18,53-59.65V145.82C384.48,137.87,379.17,132.57,371.25,132.57Zm-198.86,78.2c-14.58-4-26.51-17.24-26.51-33.15V159.08h26.51ZM358,177.62c0,15.91-11.92,30.5-26.52,33.15V159.08H358Z" transform="translate(-0.04 -0.04)" fill="#fff"/><path d="M251.88,0C112.77,0,0,112.77,0,251.88S112.77,503.76,251.88,503.76,503.76,391,503.76,251.88,391,0,251.88,0Zm0,469.77C131.63,469.77,34.14,372.29,34.14,252S131.63,34.31,251.88,34.31,469.61,131.79,469.61,252,372.13,469.77,251.88,469.77Z" transform="translate(-0.04 -0.04)" fill="#fff"/></svg>