<svg id="reward" data-name="reward" xmlns="http://www.w3.org/2000/svg" viewBox="0 0 512 512"><title>trophy</title><path d="M486.4,25.6H409.6V0H102.4V25.6H25.6C10.24,25.6,0,35.84,0,51.2v61.44c0,58.88,43.52,107.52,102.4,115.2v2.56c0,74.24,51.2,135.68,120.32,151L204.8,435.2H145.92c-10.24,0-20.48,7.68-23,17.92L102.4,512H409.6l-20.48-58.88c-2.56-10.24-12.8-17.92-23-17.92H307.2l-17.92-53.76c69.12-15.36,120.32-76.8,120.32-151v-2.56c58.88-7.68,102.4-56.32,102.4-115.2V51.2C512,35.84,501.76,25.6,486.4,25.6Zm-384,151c-28.16-7.68-51.2-33.28-51.2-64V76.8h51.2Zm358.4-64c0,30.72-23,58.88-51.2,64V76.8h51.2Z" fill="#fff"/></svg>