<?xml version="1.0" standalone="no"?>
<!DOCTYPE svg PUBLIC "-//W3C//DTD SVG 20010904//EN"
 "http://www.w3.org/TR/2001/REC-SVG-20010904/DTD/svg10.dtd">
<svg version="1.0" xmlns="http://www.w3.org/2000/svg"
 width="600.000000pt" height="600.000000pt" viewBox="0 0 600.000000 600.000000"
 preserveAspectRatio="xMidYMid meet">

<g transform="translate(0.000000,600.000000) scale(0.100000,-0.100000)"
fill="#000000" stroke="none">
<path d="M2925 5026 c-102 -17 -183 -39 -263 -70 -63 -25 -66 -25 -205 -14
-286 21 -806 0 -1056 -43 l-64 -12 7 -215 c4 -119 14 -288 22 -375 8 -88 13
-161 11 -164 -3 -2 -16 42 -30 99 -33 132 -33 112 -2 -71 53 -313 123 -623
196 -865 44 -148 130 -394 165 -475 26 -58 29 -71 15 -71 -17 0 -149 371 -221
625 -61 216 -116 469 -166 763 -24 147 -46 272 -48 277 -9 22 -5 -459 4 -590
35 -481 127 -919 270 -1292 l28 -73 -299 0 -299 0 0 -731 c0 -692 1 -731 17
-724 143 58 484 145 746 190 l37 6 0 -176 0 -175 1275 0 1275 0 0 166 0 166
28 -6 c15 -3 101 -20 192 -36 184 -34 414 -89 504 -120 33 -11 63 -20 68 -20
4 0 8 329 8 730 l0 730 -330 0 c-181 0 -330 2 -330 4 0 1 22 50 49 107 27 57
66 151 87 209 21 58 51 125 66 150 15 25 48 104 74 175 77 219 174 508 173
519 0 6 -20 -44 -44 -111 -91 -257 -223 -537 -330 -703 -69 -107 -72 -82 -4
31 113 186 242 481 348 793 l50 149 -22 31 c-38 54 -299 310 -387 380 -100 79
-284 206 -299 206 -5 0 -27 -20 -47 -45 l-38 -44 -28 89 c-93 290 -393 536
-748 615 -102 22 -351 28 -455 11z m210 -468 c-7 -420 -2 -517 37 -641 26 -82
82 -152 135 -166 64 -18 139 7 228 74 54 42 51 35 -19 -53 -56 -70 -126 -127
-202 -165 -57 -29 -64 -42 -64 -127 l0 -55 -55 3 -55 4 -2 -222 -3 -221 -75
101 -76 102 17 66 c18 67 25 252 13 300 -5 15 -26 33 -65 53 -70 35 -182 137
-235 214 l-37 55 -51 -6 c-72 -8 -184 -39 -251 -69 -66 -29 -66 -26 1 -126 50
-76 131 -154 217 -210 l59 -38 -79 -3 c-75 -3 -77 -4 -48 -17 17 -8 33 -14 38
-13 4 1 7 -2 7 -7 0 -11 105 -61 179 -86 l54 -18 -7 -351 c-3 -193 -9 -379
-12 -413 l-6 -63 -74 0 c-54 0 -72 3 -69 13 2 6 6 62 9 122 l6 110 -25 -80
c-14 -44 -33 -99 -41 -122 l-16 -43 -346 1 c-323 1 -343 2 -283 15 169 37 267
127 325 296 28 83 62 347 72 551 l5 107 -65 0 -64 0 -6 68 c-4 37 -17 135 -29
217 -29 197 -31 445 -4 555 88 356 384 593 832 665 44 7 93 13 109 14 l28 1
-7 -392z m-885 218 c0 -2 -57 -9 -127 -15 -229 -22 -397 -41 -459 -53 l-62
-11 -6 -46 c-18 -123 -37 -300 -46 -434 -9 -120 -8 -176 5 -300 17 -164 67
-521 91 -644 8 -42 12 -78 10 -80 -25 -25 -113 600 -137 967 -13 201 -6 524
12 564 11 22 18 24 153 35 210 17 566 28 566 17z m2199 -739 c47 -37 129 -108
183 -158 85 -78 97 -93 93 -117 -22 -138 -62 -329 -90 -432 -31 -112 -102
-333 -104 -320 -1 3 12 57 28 120 38 150 68 333 81 497 l11 133 -48 62 c-26
35 -113 128 -193 208 -149 148 -140 150 39 7z m-769 -408 c0 -33 -71 -59 -160
-58 l-75 0 50 26 c69 35 113 71 121 96 6 20 8 20 35 -11 16 -18 29 -41 29 -53z
m-1040 38 c15 -18 57 -48 92 -66 l63 -33 -91 4 c-134 6 -182 43 -128 99 15 16
29 29 31 29 2 0 17 -15 33 -33z m468 -1354 c217 -5 272 -9 272 -20 0 -11 -189
-13 -1110 -13 l-1110 0 0 -509 0 -509 73 19 c272 71 681 130 1117 161 196 13
934 17 993 5 95 -20 21 -27 -300 -27 -603 0 -1045 -34 -1498 -116 -125 -22
-372 -81 -417 -99 -17 -7 -18 24 -18 554 l0 561 863 0 c475 0 986 -3 1135 -7z
m726 -203 c18 -7 26 -17 26 -34 0 -37 -30 -49 -75 -30 -21 8 -41 12 -45 7 -5
-4 -20 -37 -34 -73 -15 -35 -40 -79 -57 -96 -30 -31 -31 -32 -11 -43 11 -6 44
-43 72 -83 71 -99 118 -146 152 -153 49 -11 20 -25 -50 -25 l-67 1 -59 84
c-76 109 -124 165 -142 165 -12 0 -14 -19 -12 -107 l3 -107 33 -8 c64 -17 32
-28 -83 -28 -115 0 -147 11 -82 28 l32 8 0 229 0 229 -32 10 c-61 17 -33 26
82 26 116 0 142 -8 83 -25 l-33 -10 -3 -102 -3 -103 26 0 c38 0 89 56 120 132
28 69 55 102 90 111 33 8 43 7 69 -3z m-1156 -62 c3 -58 -11 -79 -22 -34 -12
47 -31 56 -122 56 l-84 0 0 -94 0 -93 75 -6 c126 -9 188 -56 188 -140 0 -55
-27 -105 -73 -132 -30 -17 -56 -20 -187 -23 -104 -3 -153 0 -153 7 0 6 12 14
28 17 15 4 30 12 34 18 10 14 10 428 0 443 -4 6 -20 15 -35 18 -69 18 -14 25
161 23 l187 -3 3 -57z m580 -5 c3 -64 -10 -85 -23 -35 -14 55 -29 62 -142 62
l-103 0 2 -227 3 -227 33 -8 c64 -17 32 -28 -83 -28 -72 0 -115 4 -115 10 0 6
14 13 31 17 20 4 34 14 40 30 12 33 12 385 -1 418 -6 17 -20 27 -40 31 -16 4
-27 10 -24 15 3 5 97 8 212 7 l207 -3 3 -62z"/>
<path d="M2424 3440 c2 -14 10 -90 16 -170 7 -80 13 -146 15 -148 5 -5 41 283
37 296 -3 10 -10 9 -28 -3 -22 -14 -24 -14 -24 2 0 10 -5 25 -11 33 -8 12 -10
10 -5 -10z"/>
<path d="M2450 1731 c0 -109 0 -109 26 -115 46 -12 109 15 130 56 16 32 18 91
4 119 -16 28 -63 49 -115 49 l-45 0 0 -109z"/>
</g>
</svg>
